<svg id="success" xmlns="http://www.w3.org/2000/svg" width="80.517" height="80.517" viewBox="0 0 80.517 80.517">
  <g id="Group_25" data-name="Group 25" transform="translate(19.118 10.116)">
    <g id="Group_24" data-name="Group 24">
      <path id="Path_4" data-name="Path 4" d="M180.665,65.219a3.034,3.034,0,0,0-4.291-.005l-36.4,36.309L126.835,87.257a3.035,3.035,0,0,0-4.465,4.111l15.274,16.588a3.031,3.031,0,0,0,2.168.978h.065a3.038,3.038,0,0,0,2.142-.885l38.64-38.539A3.034,3.034,0,0,0,180.665,65.219Z" transform="translate(-121.568 -64.327)" fill="#34ff64"/>
    </g>
  </g>
  <g id="Group_27" data-name="Group 27">
    <g id="Group_26" data-name="Group 26">
      <path id="Path_5" data-name="Path 5" d="M77.483,37.224a3.034,3.034,0,0,0-3.034,3.035A34.189,34.189,0,1,1,40.259,6.069a3.035,3.035,0,1,0,0-6.069A40.259,40.259,0,1,0,80.517,40.259,3.034,3.034,0,0,0,77.483,37.224Z" fill="#9482db"/>
    </g>
  </g>
</svg>
